<mxfile host="app.diagrams.net" modified="2024-02-12T03:23:43.258Z" agent="Mozilla/5.0 (Windows NT 10.0; Win64; x64) AppleWebKit/537.36 (KHTML, like Gecko) Chrome/121.0.0.0 Safari/537.36" version="23.1.2" etag="Fevuqtvf2mm1-iJAu3B1" type="github">
  <diagram name="페이지-1" id="7yBtXvM-t5-QWVfa1Y4H">
    <mxGraphModel>
      <root>
        <mxCell id="0" />
        <mxCell id="1" parent="0" />
      </root>
    </mxGraphModel>
  </diagram>
</mxfile>
